{
	"asset":{
		"version":"2.0",
		"generator":"Created using the official Cinema 4D glTF Exporter 1.000x290161"
	},
	"scenes":[{
		"nodes":[0]
	}],
	"nodes":[{
		"name":"MoText",
		"translation":[-394.5945129394531,
		-43.54800033569336,
		0.0],
		"rotation":[0.0,
		0.0,
		0.0,
		-1.0],
		"scale":[1.0,
		1.0,
		1.0],
		"mesh":0
	}],
	"meshes":[{
		"primitives":[{
			"attributes":{
				"POSITION":1,
				"NORMAL":2,
				"TEXCOORD_0":3
			},
			"indices":0,
			"material":0
		}]
	}],
	"accessors":[{
		"max":[12244],
		"bufferView":0,
		"type":"SCALAR",
		"componentType":5123,
		"count":35316,
		"byteOffset":0,
		"min":[0]
	},
	{
		"max":[372.8370056152344,
		120.15599822998047,
		20.0],
		"bufferView":1,
		"type":"VEC3",
		"componentType":5126,
		"count":12245,
		"byteOffset":0,
		"min":[-13.96500015258789,
		-47.049957275390628,
		0.0]
	},
	{
		"max":[1.0,
		1.0,
		1.0],
		"bufferView":1,
		"type":"VEC3",
		"componentType":5126,
		"count":12245,
		"byteOffset":12,
		"min":[-1.0,
		-1.0,
		-1.0]
	},
	{
		"max":[1.0,
		1.0],
		"bufferView":1,
		"type":"VEC2",
		"componentType":5126,
		"count":12245,
		"byteOffset":24,
		"min":[0.0,
		0.0]
	}],
	"bufferViews":[{
		"target":34963,
		"buffer":0,
		"byteOffset":0,
		"byteLength":70632
	},
	{
		"target":34962,
		"buffer":0,
		"byteOffset":70632,
		"byteLength":391840,
		"byteStride":32
	}],
	"buffers":[{
		"uri":"data:application/octet-stream;base64,",
		"byteLength":462472
	}],
	"materials":[{
		"pbrMetallicRoughness":{
			"baseColorFactor":[1.0,
			1.0,
			1.0,
			1.0],
			"metallicFactor":1.0,
			"roughnessFactor":1.0
		},
		"emissiveFactor":[0.0,
		0.0,
		0.0],
		"alphaMode":"OPAQUE",
		"doubleSided":true,
		"name":""
	}]
}