{
	"asset":{
		"version":"2.0",
		"generator":"Created using the official Cinema 4D glTF Exporter 1.000x290161"
	},
	"scenes":[{
		"nodes":[0]
	}],
	"nodes":[{
		"name":"MoText",
		"translation":[-836.2710571289063,
		0.0,
		0.0],
		"rotation":[0.0,
		0.0,
		0.0,
		-1.0],
		"scale":[1.0,
		1.0,
		1.0],
		"children":[1,
		8]
	},
	{
		"name":"1",
		"children":[2]
	},
	{
		"name":"DREAM",
		"children":[3,
		4,
		5,
		6,
		7]
	},
	{
		"name":"D",
		"mesh":0
	},
	{
		"name":"R",
		"translation":[109.89600372314453,
		0.0,
		0.0],
		"rotation":[0.0,
		0.0,
		0.0,
		-1.0],
		"scale":[1.0,
		1.0,
		1.0],
		"mesh":1
	},
	{
		"name":"E",
		"translation":[228.22799682617188,
		0.0,
		0.0],
		"rotation":[0.0,
		0.0,
		0.0,
		-1.0],
		"scale":[1.0,
		1.0,
		1.0],
		"mesh":2
	},
	{
		"name":"A",
		"translation":[337.6679992675781,
		0.0,
		0.0],
		"rotation":[0.0,
		0.0,
		0.0,
		-1.0],
		"scale":[1.0,
		1.0,
		1.0],
		"mesh":3
	},
	{
		"name":"M",
		"translation":[456.9119873046875,
		0.0,
		0.0],
		"rotation":[0.0,
		0.0,
		0.0,
		-1.0],
		"scale":[1.0,
		1.0,
		1.0],
		"mesh":4
	},
	{
		"name":"2",
		"translation":[94.16400146484375,
		-174.19200134277345,
		0.0],
		"rotation":[0.0,
		0.0,
		0.0,
		-1.0],
		"scale":[1.0,
		1.0,
		1.0],
		"children":[9]
	},
	{
		"name":"GREASE",
		"children":[10,
		11,
		12,
		13,
		14,
		15]
	},
	{
		"name":"G",
		"mesh":5
	},
	{
		"name":"R",
		"translation":[123.3479995727539,
		0.0,
		0.0],
		"rotation":[0.0,
		0.0,
		0.0,
		-1.0],
		"scale":[1.0,
		1.0,
		1.0],
		"mesh":6
	},
	{
		"name":"E",
		"translation":[241.67999267578126,
		0.0,
		0.0],
		"rotation":[0.0,
		0.0,
		0.0,
		-1.0],
		"scale":[1.0,
		1.0,
		1.0],
		"mesh":7
	},
	{
		"name":"A",
		"translation":[351.1199951171875,
		0.0,
		0.0],
		"rotation":[0.0,
		0.0,
		0.0,
		-1.0],
		"scale":[1.0,
		1.0,
		1.0],
		"mesh":8
	},
	{
		"name":"S",
		"translation":[470.364013671875,
		0.0,
		0.0],
		"rotation":[0.0,
		0.0,
		0.0,
		-1.0],
		"scale":[1.0,
		1.0,
		1.0],
		"mesh":9
	},
	{
		"name":"E",
		"translation":[573.4199829101563,
		0.0,
		0.0],
		"rotation":[0.0,
		0.0,
		0.0,
		-1.0],
		"scale":[1.0,
		1.0,
		1.0],
		"mesh":10
	}],
	"meshes":[{
		"primitives":[{
			"attributes":{
				"POSITION":1,
				"NORMAL":2,
				"TEXCOORD_0":3
			},
			"indices":0,
			"material":0
		}]
	},
	{
		"primitives":[{
			"attributes":{
				"POSITION":5,
				"NORMAL":6,
				"TEXCOORD_0":7
			},
			"indices":4,
			"material":1
		}]
	},
	{
		"primitives":[{
			"attributes":{
				"POSITION":9,
				"NORMAL":10,
				"TEXCOORD_0":11
			},
			"indices":8,
			"material":2
		}]
	},
	{
		"primitives":[{
			"attributes":{
				"POSITION":13,
				"NORMAL":14,
				"TEXCOORD_0":15
			},
			"indices":12,
			"material":3
		}]
	},
	{
		"primitives":[{
			"attributes":{
				"POSITION":17,
				"NORMAL":18,
				"TEXCOORD_0":19
			},
			"indices":16,
			"material":4
		}]
	},
	{
		"primitives":[{
			"attributes":{
				"POSITION":21,
				"NORMAL":22,
				"TEXCOORD_0":23
			},
			"indices":20,
			"material":5
		}]
	},
	{
		"primitives":[{
			"attributes":{
				"POSITION":25,
				"NORMAL":26,
				"TEXCOORD_0":27
			},
			"indices":24,
			"material":6
		}]
	},
	{
		"primitives":[{
			"attributes":{
				"POSITION":29,
				"NORMAL":30,
				"TEXCOORD_0":31
			},
			"indices":28,
			"material":7
		}]
	},
	{
		"primitives":[{
			"attributes":{
				"POSITION":33,
				"NORMAL":34,
				"TEXCOORD_0":35
			},
			"indices":32,
			"material":8
		}]
	},
	{
		"primitives":[{
			"attributes":{
				"POSITION":37,
				"NORMAL":38,
				"TEXCOORD_0":39
			},
			"indices":36,
			"material":9
		}]
	},
	{
		"primitives":[{
			"attributes":{
				"POSITION":41,
				"NORMAL":42,
				"TEXCOORD_0":43
			},
			"indices":40,
			"material":10
		}]
	}],
	"accessors":[{
		"max":[918],
		"bufferView":0,
		"type":"SCALAR",
		"componentType":5123,
		"count":2640,
		"byteOffset":0,
		"min":[0]
	},
	{
		"max":[126.08399963378906,
		153.21600341796876,
		40.0],
		"bufferView":1,
		"type":"VEC3",
		"componentType":5126,
		"count":919,
		"byteOffset":0,
		"min":[19.152000427246095,
		-6.840000152587891,
		0.0]
	},
	{
		"max":[1.0,
		1.0,
		1.0],
		"bufferView":1,
		"type":"VEC3",
		"componentType":5126,
		"count":919,
		"byteOffset":12,
		"min":[-1.0,
		-1.0,
		-1.0]
	},
	{
		"max":[1.0,
		1.0],
		"bufferView":1,
		"type":"VEC2",
		"componentType":5126,
		"count":919,
		"byteOffset":24,
		"min":[0.0,
		0.0]
	},
	{
		"max":[1129],
		"bufferView":2,
		"type":"SCALAR",
		"componentType":5123,
		"count":3252,
		"byteOffset":0,
		"min":[0]
	},
	{
		"max":[135.4607696533203,
		152.75999450683595,
		40.0],
		"bufferView":3,
		"type":"VEC3",
		"componentType":5126,
		"count":1130,
		"byteOffset":0,
		"min":[19.607999801635743,
		-6.868775367736816,
		0.0]
	},
	{
		"max":[1.0,
		1.0,
		1.0],
		"bufferView":3,
		"type":"VEC3",
		"componentType":5126,
		"count":1130,
		"byteOffset":12,
		"min":[-1.0,
		-1.0,
		-1.0]
	},
	{
		"max":[1.0,
		1.0],
		"bufferView":3,
		"type":"VEC2",
		"componentType":5126,
		"count":1130,
		"byteOffset":24,
		"min":[0.0,
		0.0]
	},
	{
		"max":[1151],
		"bufferView":4,
		"type":"SCALAR",
		"componentType":5123,
		"count":3312,
		"byteOffset":0,
		"min":[0]
	},
	{
		"max":[125.1719970703125,
		152.75999450683595,
		40.0],
		"bufferView":5,
		"type":"VEC3",
		"componentType":5126,
		"count":1152,
		"byteOffset":0,
		"min":[19.3799991607666,
		-6.840000152587891,
		0.0]
	},
	{
		"max":[1.0,
		1.0,
		1.0],
		"bufferView":5,
		"type":"VEC3",
		"componentType":5126,
		"count":1152,
		"byteOffset":12,
		"min":[-1.0,
		-1.0,
		-1.0]
	},
	{
		"max":[1.0,
		1.0],
		"bufferView":5,
		"type":"VEC2",
		"componentType":5126,
		"count":1152,
		"byteOffset":24,
		"min":[0.0,
		0.0]
	},
	{
		"max":[863],
		"bufferView":6,
		"type":"SCALAR",
		"componentType":5123,
		"count":2484,
		"byteOffset":0,
		"min":[0]
	},
	{
		"max":[142.89190673828126,
		152.69590759277345,
		40.0],
		"bufferView":7,
		"type":"VEC3",
		"componentType":5126,
		"count":864,
		"byteOffset":0,
		"min":[3.9435462951660158,
		-7.003911972045898,
		0.0]
	},
	{
		"max":[0.9999715089797974,
		1.0,
		1.0],
		"bufferView":7,
		"type":"VEC3",
		"componentType":5126,
		"count":864,
		"byteOffset":12,
		"min":[-0.9999715089797974,
		-1.0,
		-1.0]
	},
	{
		"max":[1.0,
		1.0],
		"bufferView":7,
		"type":"VEC2",
		"componentType":5126,
		"count":864,
		"byteOffset":24,
		"min":[0.0,
		0.0]
	},
	{
		"max":[1151],
		"bufferView":8,
		"type":"SCALAR",
		"componentType":5123,
		"count":3312,
		"byteOffset":0,
		"min":[0]
	},
	{
		"max":[184.80653381347657,
		152.88653564453126,
		40.0],
		"bufferView":9,
		"type":"VEC3",
		"componentType":5126,
		"count":1152,
		"byteOffset":0,
		"min":[19.3799991607666,
		-7.047527313232422,
		0.0]
	},
	{
		"max":[1.0,
		0.9999207854270935,
		1.0],
		"bufferView":9,
		"type":"VEC3",
		"componentType":5126,
		"count":1152,
		"byteOffset":12,
		"min":[-1.0,
		-0.9999207854270935,
		-1.0]
	},
	{
		"max":[1.0,
		1.0],
		"bufferView":9,
		"type":"VEC2",
		"componentType":5126,
		"count":1152,
		"byteOffset":24,
		"min":[0.0,
		0.0]
	},
	{
		"max":[1169],
		"bufferView":10,
		"type":"SCALAR",
		"componentType":5123,
		"count":3420,
		"byteOffset":0,
		"min":[0]
	},
	{
		"max":[139.99200439453126,
		152.75999450683595,
		40.0],
		"bufferView":11,
		"type":"VEC3",
		"componentType":5126,
		"count":1170,
		"byteOffset":0,
		"min":[9.119999885559082,
		-6.383999824523926,
		0.0]
	},
	{
		"max":[1.0,
		0.9999879002571106,
		1.0],
		"bufferView":11,
		"type":"VEC3",
		"componentType":5126,
		"count":1170,
		"byteOffset":12,
		"min":[-1.0,
		-0.9999891519546509,
		-1.0]
	},
	{
		"max":[1.0,
		1.0],
		"bufferView":11,
		"type":"VEC2",
		"componentType":5126,
		"count":1170,
		"byteOffset":24,
		"min":[0.0,
		0.0]
	},
	{
		"max":[1129],
		"bufferView":12,
		"type":"SCALAR",
		"componentType":5123,
		"count":3252,
		"byteOffset":0,
		"min":[0]
	},
	{
		"max":[135.4607696533203,
		152.75999450683595,
		40.0],
		"bufferView":13,
		"type":"VEC3",
		"componentType":5126,
		"count":1130,
		"byteOffset":0,
		"min":[19.607999801635743,
		-6.868775367736816,
		0.0]
	},
	{
		"max":[1.0,
		1.0,
		1.0],
		"bufferView":13,
		"type":"VEC3",
		"componentType":5126,
		"count":1130,
		"byteOffset":12,
		"min":[-1.0,
		-1.0,
		-1.0]
	},
	{
		"max":[1.0,
		1.0],
		"bufferView":13,
		"type":"VEC2",
		"componentType":5126,
		"count":1130,
		"byteOffset":24,
		"min":[0.0,
		0.0]
	},
	{
		"max":[1151],
		"bufferView":14,
		"type":"SCALAR",
		"componentType":5123,
		"count":3312,
		"byteOffset":0,
		"min":[0]
	},
	{
		"max":[125.1719970703125,
		152.75999450683595,
		40.0],
		"bufferView":15,
		"type":"VEC3",
		"componentType":5126,
		"count":1152,
		"byteOffset":0,
		"min":[19.3799991607666,
		-6.840000152587891,
		0.0]
	},
	{
		"max":[1.0,
		1.0,
		1.0],
		"bufferView":15,
		"type":"VEC3",
		"componentType":5126,
		"count":1152,
		"byteOffset":12,
		"min":[-1.0,
		-1.0,
		-1.0]
	},
	{
		"max":[1.0,
		1.0],
		"bufferView":15,
		"type":"VEC2",
		"componentType":5126,
		"count":1152,
		"byteOffset":24,
		"min":[0.0,
		0.0]
	},
	{
		"max":[863],
		"bufferView":16,
		"type":"SCALAR",
		"componentType":5123,
		"count":2484,
		"byteOffset":0,
		"min":[0]
	},
	{
		"max":[142.89190673828126,
		152.69590759277345,
		40.0],
		"bufferView":17,
		"type":"VEC3",
		"componentType":5126,
		"count":864,
		"byteOffset":0,
		"min":[3.9435462951660158,
		-7.003911972045898,
		0.0]
	},
	{
		"max":[0.9999715089797974,
		1.0,
		1.0],
		"bufferView":17,
		"type":"VEC3",
		"componentType":5126,
		"count":864,
		"byteOffset":12,
		"min":[-0.9999715089797974,
		-1.0,
		-1.0]
	},
	{
		"max":[1.0,
		1.0],
		"bufferView":17,
		"type":"VEC2",
		"componentType":5126,
		"count":864,
		"byteOffset":24,
		"min":[0.0,
		0.0]
	},
	{
		"max":[1559],
		"bufferView":18,
		"type":"SCALAR",
		"componentType":5123,
		"count":4536,
		"byteOffset":0,
		"min":[0]
	},
	{
		"max":[118.78800201416016,
		152.53199768066407,
		40.0],
		"bufferView":19,
		"type":"VEC3",
		"componentType":5126,
		"count":1560,
		"byteOffset":0,
		"min":[11.17199993133545,
		-6.611999988555908,
		0.0]
	},
	{
		"max":[1.0,
		1.0,
		1.0],
		"bufferView":19,
		"type":"VEC3",
		"componentType":5126,
		"count":1560,
		"byteOffset":12,
		"min":[-1.0,
		-1.0,
		-1.0]
	},
	{
		"max":[1.0,
		1.0],
		"bufferView":19,
		"type":"VEC2",
		"componentType":5126,
		"count":1560,
		"byteOffset":24,
		"min":[0.0,
		0.0]
	},
	{
		"max":[1151],
		"bufferView":20,
		"type":"SCALAR",
		"componentType":5123,
		"count":3312,
		"byteOffset":0,
		"min":[0]
	},
	{
		"max":[125.1719970703125,
		152.75999450683595,
		40.0],
		"bufferView":21,
		"type":"VEC3",
		"componentType":5126,
		"count":1152,
		"byteOffset":0,
		"min":[19.3799991607666,
		-6.840000152587891,
		0.0]
	},
	{
		"max":[1.0,
		1.0,
		1.0],
		"bufferView":21,
		"type":"VEC3",
		"componentType":5126,
		"count":1152,
		"byteOffset":12,
		"min":[-1.0,
		-1.0,
		-1.0]
	},
	{
		"max":[1.0,
		1.0],
		"bufferView":21,
		"type":"VEC2",
		"componentType":5126,
		"count":1152,
		"byteOffset":24,
		"min":[0.0,
		0.0]
	}],
	"bufferViews":[{
		"target":34963,
		"buffer":0,
		"byteOffset":0,
		"byteLength":5280
	},
	{
		"target":34962,
		"buffer":0,
		"byteOffset":5280,
		"byteLength":29408,
		"byteStride":32
	},
	{
		"target":34963,
		"buffer":1,
		"byteOffset":0,
		"byteLength":6504
	},
	{
		"target":34962,
		"buffer":1,
		"byteOffset":6504,
		"byteLength":36160,
		"byteStride":32
	},
	{
		"target":34963,
		"buffer":2,
		"byteOffset":0,
		"byteLength":6624
	},
	{
		"target":34962,
		"buffer":2,
		"byteOffset":6624,
		"byteLength":36864,
		"byteStride":32
	},
	{
		"target":34963,
		"buffer":3,
		"byteOffset":0,
		"byteLength":4968
	},
	{
		"target":34962,
		"buffer":3,
		"byteOffset":4968,
		"byteLength":27648,
		"byteStride":32
	},
	{
		"target":34963,
		"buffer":4,
		"byteOffset":0,
		"byteLength":6624
	},
	{
		"target":34962,
		"buffer":4,
		"byteOffset":6624,
		"byteLength":36864,
		"byteStride":32
	},
	{
		"target":34963,
		"buffer":5,
		"byteOffset":0,
		"byteLength":6840
	},
	{
		"target":34962,
		"buffer":5,
		"byteOffset":6840,
		"byteLength":37440,
		"byteStride":32
	},
	{
		"target":34963,
		"buffer":6,
		"byteOffset":0,
		"byteLength":6504
	},
	{
		"target":34962,
		"buffer":6,
		"byteOffset":6504,
		"byteLength":36160,
		"byteStride":32
	},
	{
		"target":34963,
		"buffer":7,
		"byteOffset":0,
		"byteLength":6624
	},
	{
		"target":34962,
		"buffer":7,
		"byteOffset":6624,
		"byteLength":36864,
		"byteStride":32
	},
	{
		"target":34963,
		"buffer":8,
		"byteOffset":0,
		"byteLength":4968
	},
	{
		"target":34962,
		"buffer":8,
		"byteOffset":4968,
		"byteLength":27648,
		"byteStride":32
	},
	{
		"target":34963,
		"buffer":9,
		"byteOffset":0,
		"byteLength":9072
	},
	{
		"target":34962,
		"buffer":9,
		"byteOffset":9072,
		"byteLength":49920,
		"byteStride":32
	},
	{
		"target":34963,
		"buffer":10,
		"byteOffset":0,
		"byteLength":6624
	},
	{
		"target":34962,
		"buffer":10,
		"byteOffset":6624,
		"byteLength":36864,
		"byteStride":32
	}],
	"buffers":[{
		"uri":"data:application/octet-stream;base64,",
		"byteLength":34688
	},
	{
		"uri":"data:application/octet-stream;base64,",
		"byteLength":42664
	},
	{
		"uri":"data:application/octet-stream;base64,",
		"byteLength":43488
	},
	{
		"uri":"data:application/octet-stream;base64,",
		"byteLength":32616
	},
	{
		"uri":"data:application/octet-stream;base64,",
		"byteLength":43488
	},
	{
		"uri":"data:application/octet-stream;base64,",
		"byteLength":44280
	},
	{
		"uri":"data:application/octet-stream;base64,",
		"byteLength":42664
	},
	{
		"uri":"data:application/octet-stream;base64,",
		"byteLength":43488
	},
	{
		"uri":"data:application/octet-stream;base64,",
		"byteLength":32616
	},
	{
		"uri":"data:application/octet-stream;base64,",
		"byteLength":58992
	},
	{
		"uri":"data:application/octet-stream;base64,",
		"byteLength":43488
	}],
	"materials":[{
		"pbrMetallicRoughness":{
			"baseColorFactor":[1.0,
			1.0,
			1.0,
			1.0],
			"metallicFactor":1.0,
			"roughnessFactor":1.0
		},
		"emissiveFactor":[0.0,
		0.0,
		0.0],
		"alphaMode":"OPAQUE",
		"doubleSided":true,
		"name":""
	},
	{
		"pbrMetallicRoughness":{
			"baseColorFactor":[1.0,
			1.0,
			1.0,
			1.0],
			"metallicFactor":1.0,
			"roughnessFactor":1.0
		},
		"emissiveFactor":[0.0,
		0.0,
		0.0],
		"alphaMode":"OPAQUE",
		"doubleSided":true,
		"name":""
	},
	{
		"pbrMetallicRoughness":{
			"baseColorFactor":[1.0,
			1.0,
			1.0,
			1.0],
			"metallicFactor":1.0,
			"roughnessFactor":1.0
		},
		"emissiveFactor":[0.0,
		0.0,
		0.0],
		"alphaMode":"OPAQUE",
		"doubleSided":true,
		"name":""
	},
	{
		"pbrMetallicRoughness":{
			"baseColorFactor":[1.0,
			1.0,
			1.0,
			1.0],
			"metallicFactor":1.0,
			"roughnessFactor":1.0
		},
		"emissiveFactor":[0.0,
		0.0,
		0.0],
		"alphaMode":"OPAQUE",
		"doubleSided":true,
		"name":""
	},
	{
		"pbrMetallicRoughness":{
			"baseColorFactor":[1.0,
			1.0,
			1.0,
			1.0],
			"metallicFactor":1.0,
			"roughnessFactor":1.0
		},
		"emissiveFactor":[0.0,
		0.0,
		0.0],
		"alphaMode":"OPAQUE",
		"doubleSided":true,
		"name":""
	},
	{
		"pbrMetallicRoughness":{
			"baseColorFactor":[1.0,
			1.0,
			1.0,
			1.0],
			"metallicFactor":1.0,
			"roughnessFactor":1.0
		},
		"emissiveFactor":[0.0,
		0.0,
		0.0],
		"alphaMode":"OPAQUE",
		"doubleSided":true,
		"name":""
	},
	{
		"pbrMetallicRoughness":{
			"baseColorFactor":[1.0,
			1.0,
			1.0,
			1.0],
			"metallicFactor":1.0,
			"roughnessFactor":1.0
		},
		"emissiveFactor":[0.0,
		0.0,
		0.0],
		"alphaMode":"OPAQUE",
		"doubleSided":true,
		"name":""
	},
	{
		"pbrMetallicRoughness":{
			"baseColorFactor":[1.0,
			1.0,
			1.0,
			1.0],
			"metallicFactor":1.0,
			"roughnessFactor":1.0
		},
		"emissiveFactor":[0.0,
		0.0,
		0.0],
		"alphaMode":"OPAQUE",
		"doubleSided":true,
		"name":""
	},
	{
		"pbrMetallicRoughness":{
			"baseColorFactor":[1.0,
			1.0,
			1.0,
			1.0],
			"metallicFactor":1.0,
			"roughnessFactor":1.0
		},
		"emissiveFactor":[0.0,
		0.0,
		0.0],
		"alphaMode":"OPAQUE",
		"doubleSided":true,
		"name":""
	},
	{
		"pbrMetallicRoughness":{
			"baseColorFactor":[1.0,
			1.0,
			1.0,
			1.0],
			"metallicFactor":1.0,
			"roughnessFactor":1.0
		},
		"emissiveFactor":[0.0,
		0.0,
		0.0],
		"alphaMode":"OPAQUE",
		"doubleSided":true,
		"name":""
	},
	{
		"pbrMetallicRoughness":{
			"baseColorFactor":[1.0,
			1.0,
			1.0,
			1.0],
			"metallicFactor":1.0,
			"roughnessFactor":1.0
		},
		"emissiveFactor":[0.0,
		0.0,
		0.0],
		"alphaMode":"OPAQUE",
		"doubleSided":true,
		"name":""
	}]
}